# xmcd
#
# Track frame offsets:
#	150
#	16794
#	28842
#	47272
#	66533
#	81971
#	92837
#	112441
#	127087
#	144694
#	163328
#
# Disc length: 2364 seconds
#
# Revision: 0
# Processed by: cddbd v1.5.2PL0 Copyright (c) Steve Scherf et al.
# Submitted via: EasyCDDAExtractor 2010.6.0.0
#
DISCID=a2093a0b
DTITLE=Honeybrowne - Real
DYEAR=2001
DGENRE=Country and Folk
TTITLE0=Who Do You Think I Am?
TTITLE1=Baby Baby
TTITLE2=Tired Of This Town
TTITLE3=Real
TTITLE4=Me And Smitty
TTITLE5=Time Moves On
TTITLE6=Amazing
TTITLE7=Goodbye
TTITLE8=For So Long
TTITLE9=Hey Hey
TTITLE10=College Daze
EXTD=
EXTT0=
EXTT1=
EXTT2=
EXTT3=
EXTT4=
EXTT5=
EXTT6=
EXTT7=
EXTT8=
EXTT9=
EXTT10=
PLAYORDER=
